<?xml version="1.0" encoding="utf-8"?>
<!-- Generator: Adobe Illustrator 23.1.0, SVG Export Plug-In . SVG Version: 6.00 Build 0)  -->
<svg version="1.1" xmlns="http://www.w3.org/2000/svg" xmlns:xlink="http://www.w3.org/1999/xlink" x="0px" y="0px"
	 viewBox="0 0 4288 1226" style="enable-background:new 0 0 4288 1226;" xml:space="preserve">
<style type="text/css">
	.st0{fill:#E0E3E4;}
	.st1{fill:#D9DFE2;stroke:#FFFFFF;stroke-width:3;stroke-miterlimit:10;}
	.st2{fill:#CED7DB;stroke:#FFFFFF;stroke-width:4;stroke-miterlimit:10;}
	.st3{fill:#C8CFD3;stroke:#FFFFFF;stroke-width:4;stroke-miterlimit:10;}
	.st4{fill:#FFFFFF;}
	.st5{fill:#3C080B;}
	.st6{font-family:'TenorSans';}
	.st7{font-size:150px;}
</style>
<g id="Слой_2">
	<rect x="1.07" y="5.82" class="st0" width="4288" height="1226"/>
</g>
<g id="Слой_6">
</g>
<g id="Слой_7">
	<path class="st1" d="M4401.46,950.98c0,0-207.59-636.04-810.68-837.07S2645.17-95.68,2001.62-57.18S915.34-495.58,915.34-495.58
		H-57.7v1948.26l4495.37-72.71L4401.46,950.98z"/>
</g>
<g id="Слой_5">
	<path class="st2" d="M4318.05,1055.4c0,0-136.21-177.37-329.7-313.92C3705.12,541.6,3237.9,266.17,2669.03,302.13
		s-737.36,148.92-1058.85,180.42c-143.89,14.1-528.01,65.75-1019.89-293.7S-12.79-410.42-12.79-410.42v1655.29l4405.54,38.49
		L4318.05,1055.4z"/>
</g>
<g id="Слой_4">
	<path class="st3" d="M4289.07,1231.82c0,0-156.85-297.36-1430.88-255.18c-1113.87,36.88-1980.36-82.82-2660.44-498.09
		C-77.73,310.34-208.58,239.23-208.58,239.23v1075.13L4289.07,1231.82z"/>
</g>
<g id="Слой_3">
	<path class="st4" d="M4105.09,27.14c0,0-23.84,172.02-144.77,172.02c0,0,144.77-11.92,144.77,144.77
		c0,0-18.73-144.77,144.77-144.77C4249.86,199.17,4105.09,190.65,4105.09,27.14z"/>
	<g>
		<circle class="st4" cx="375.26" cy="594.78" r="73.43"/>
		<g>
			<path class="st4" d="M353.5,524.63c0,0,21.76-10.83,21.76-46.08c0,0,1.34,25.66,21.76,46.08H353.5z"/>
		</g>
		<g>
			<path class="st4" d="M444.93,573.02c0,0,10.58,21.89,45.82,22.3c0,0-25.68,1.04-46.33,21.22L444.93,573.02z"/>
		</g>
		<g>
			<path class="st4" d="M397.02,664.57c0,0-21.76,10.83-21.76,46.08c0,0-1.34-25.66-21.76-46.08H397.02z"/>
		</g>
		<g>
			<path class="st4" d="M304.88,616.54c0,0-10.58-21.89-45.82-22.3c0,0,25.68-1.04,46.33-21.22L304.88,616.54z"/>
		</g>
		<g>
			<path class="st4" d="M400.54,538.22c0,0,22.96,7.97,48.15-16.68c0,0-17.4,18.91-17.71,47.78L400.54,538.22z"/>
		</g>
		<g>
			<path class="st4" d="M429.76,620.06c0,0-7.97,22.96,16.68,48.15c0,0-18.91-17.4-47.78-17.71L429.76,620.06z"/>
		</g>
		<g>
			<path class="st4" d="M349.8,650.98c0,0-22.96-7.97-48.15,16.68c0,0,17.4-18.91,17.71-47.78L349.8,650.98z"/>
		</g>
		<g>
			<path class="st4" d="M318.51,569.69c0,0,7.97-22.96-16.68-48.15c0,0,18.91,17.4,47.78,17.71L318.51,569.69z"/>
		</g>
	</g>
	<g>
		<circle class="st4" cx="3697.51" cy="370.83" r="41.6"/>
		<g>
			<path class="st4" d="M3685.18,331.08c0,0,12.33-6.14,12.33-26.11c0,0,0.76,14.54,12.33,26.11H3685.18z"/>
		</g>
		<g>
			<path class="st4" d="M3736.98,358.5c0,0,5.99,12.4,25.96,12.64c0,0-14.55,0.59-26.25,12.02L3736.98,358.5z"/>
		</g>
		<g>
			<path class="st4" d="M3709.84,410.37c0,0-12.33,6.14-12.33,26.11c0,0-0.76-14.54-12.33-26.11H3709.84z"/>
		</g>
		<g>
			<path class="st4" d="M3657.63,383.16c0,0-5.99-12.4-25.96-12.64c0,0,14.55-0.59,26.25-12.02L3657.63,383.16z"/>
		</g>
		<g>
			<path class="st4" d="M3711.83,338.78c0,0,13.01,4.52,27.28-9.45c0,0-9.86,10.71-10.03,27.07L3711.83,338.78z"/>
		</g>
		<g>
			<path class="st4" d="M3728.38,385.15c0,0-4.52,13.01,9.45,27.28c0,0-10.71-9.86-27.07-10.03L3728.38,385.15z"/>
		</g>
		<g>
			<path class="st4" d="M3683.08,402.67c0,0-13.01-4.52-27.28,9.45c0,0,9.86-10.71,10.03-27.07L3683.08,402.67z"/>
		</g>
		<g>
			<path class="st4" d="M3665.35,356.61c0,0,4.52-13.01-9.45-27.28c0,0,10.71,9.86,27.07,10.03L3665.35,356.61z"/>
		</g>
	</g>
	<g>
		<circle class="st4" cx="1897.95" cy="950.35" r="75.83"/>
		<g>
			<path class="st4" d="M1875.47,877.9c0,0,22.47-11.19,22.47-47.59c0,0,1.39,26.5,22.47,47.59H1875.47z"/>
		</g>
		<g>
			<path class="st4" d="M1969.9,927.88c0,0,10.92,22.61,47.32,23.03c0,0-26.52,1.08-47.85,21.91L1969.9,927.88z"/>
		</g>
		<g>
			<path class="st4" d="M1920.42,1022.42c0,0-22.47,11.19-22.47,47.59c0,0-1.39-26.5-22.47-47.59H1920.42z"/>
		</g>
		<g>
			<path class="st4" d="M1825.26,972.82c0,0-10.92-22.61-47.32-23.03c0,0,26.52-1.08,47.85-21.91L1825.26,972.82z"/>
		</g>
		<g>
			<path class="st4" d="M1924.05,891.93c0,0,23.72,8.24,49.73-17.23c0,0-17.97,19.53-18.28,49.35L1924.05,891.93z"/>
		</g>
		<g>
			<path class="st4" d="M1954.23,976.45c0,0-8.24,23.72,17.23,49.73c0,0-19.53-17.97-49.35-18.28L1954.23,976.45z"/>
		</g>
		<g>
			<path class="st4" d="M1871.65,1008.39c0,0-23.72-8.24-49.73,17.23c0,0,17.97-19.53,18.28-49.35L1871.65,1008.39z"/>
		</g>
		<g>
			<path class="st4" d="M1839.34,924.43c0,0,8.24-23.72-17.23-49.73c0,0,19.53,17.97,49.35,18.28L1839.34,924.43z"/>
		</g>
	</g>
	<g>
		<circle class="st4" cx="1317.54" cy="255.18" r="104.6"/>
		<g>
			<path class="st4" d="M1286.54,155.25c0,0,31-15.43,31-65.64c0,0,1.92,36.55,31,65.64H1286.54z"/>
		</g>
		<g>
			<path class="st4" d="M1416.78,224.18c0,0,15.06,31.18,65.27,31.77c0,0-36.57,1.48-66,30.22L1416.78,224.18z"/>
		</g>
		<g>
			<path class="st4" d="M1348.54,354.59c0,0-31,15.43-31,65.64c0,0-1.92-36.55-31-65.64H1348.54z"/>
		</g>
		<g>
			<path class="st4" d="M1217.28,286.18c0,0-15.06-31.18-65.27-31.77c0,0,36.57-1.48,66-30.22L1217.28,286.18z"/>
		</g>
		<g>
			<path class="st4" d="M1353.54,174.6c0,0,32.71,11.36,68.59-23.76c0,0-24.78,26.94-25.22,68.07L1353.54,174.6z"/>
		</g>
		<g>
			<path class="st4" d="M1395.16,291.19c0,0-11.36,32.71,23.76,68.59c0,0-26.94-24.78-68.07-25.22L1395.16,291.19z"/>
		</g>
		<g>
			<path class="st4" d="M1281.27,335.23c0,0-32.71-11.36-68.59,23.76c0,0,24.78-26.94,25.22-68.07L1281.27,335.23z"/>
		</g>
		<g>
			<path class="st4" d="M1236.7,219.43c0,0,11.36-32.71-23.76-68.59c0,0,26.94,24.78,68.07,25.22L1236.7,219.43z"/>
		</g>
	</g>
	<path class="st4" d="M3862.92,1010.39c0,0,16.47-118.8,99.98-118.8c0,0-99.98,8.23-99.98-99.98c0,0,12.94,99.98-99.98,99.98
		C3762.94,891.59,3862.92,897.47,3862.92,1010.39z"/>
	<path class="st4" d="M660.58,1158.64c0,0,27.97-201.8,169.83-201.8c0,0-169.83,13.99-169.83-169.83c0,0,21.98,169.83-169.83,169.83
		C490.75,956.84,660.58,966.83,660.58,1158.64z"/>
	<path class="st4" d="M467.58,319.02c0,0,10.05-72.48,61-72.48c0,0-61,5.02-61-61c0,0,7.89,61-61,61
		C406.59,246.54,467.58,250.13,467.58,319.02z"/>
	<path class="st4" d="M1673.09,248.45c0,0,14.03-101.21,85.18-101.21c0,0-85.18,7.01-85.18-85.18c0,0,11.02,85.18-85.18,85.18
		C1587.91,147.23,1673.09,152.24,1673.09,248.45z"/>
</g>
<g id="Слой_1">
	<text transform="matrix(1 0 0 1 311.5435 647.6241)" class="st5 st6 st7">Сообщество помощи крысам с тяжелой судьбой</text>
</g>
</svg>
